<svg xmlns="http://www.w3.org/2000/svg" viewBox="0 0 110.83 53.77"><defs><style>.cls-1{fill:#b9b8b8;}.cls-2{fill:#c8c7c7;}.cls-3{fill:#757575;}.cls-4{fill:#565656;}.cls-5{fill:#d0cfcf;}.cls-6{fill:#272c35;}.cls-7{fill:#3a414c;}.cls-8{fill:#20252d;}.cls-9{fill:#e46fee;}.cls-10{fill:#e7cd7d;}.cls-11{fill:#c5c5c5;}.cls-12{fill:#dc4848;}.cls-12,.cls-13,.cls-14{fill-rule:evenodd;}.cls-13{fill:#e8b24b;}.cls-14{fill:#3cc33c;}</style></defs><title>macbook icon</title><g id="outside"><g id="Rounded_Rectangle_2" data-name="Rounded Rectangle 2"><rect class="cls-1" x="8.49" width="93.85" height="48.26" rx="4.72" ry="4.72"/></g><g id="Rounded_Rectangle_2_copy" data-name="Rounded Rectangle 2 copy"><rect x="9.28" y="0.79" width="92.28" height="46.69" rx="4.72" ry="4.72"/></g><g id="Rounded_Rectangle_3" data-name="Rounded Rectangle 3"><rect class="cls-2" y="47.48" width="110.83" height="6.29" rx="2.36" ry="2.36"/></g><g id="Rounded_Rectangle_4" data-name="Rounded Rectangle 4"><rect class="cls-3" x="42.39" y="42.86" width="26.05" height="6.72" rx="2.26" ry="2.26"/><path class="cls-4" d="M74.36,72.67a2.16,2.16,0,0,1,2.16,2.16V77a2.16,2.16,0,0,1-2.16,2.16H52.82A2.16,2.16,0,0,1,50.66,77v-2.2a2.16,2.16,0,0,1,2.16-2.16H74.36m0-.2H52.82a2.36,2.36,0,0,0-2.36,2.36V77a2.36,2.36,0,0,0,2.36,2.36H74.36A2.36,2.36,0,0,0,76.72,77v-2.2a2.36,2.36,0,0,0-2.36-2.36Z" transform="translate(-8.17 -29.71)"/></g></g><g id="screen"><g id="Rectangle_1" data-name="Rectangle 1"><rect x="27.04" y="16.04" width="69.96" height="31.44"/></g><g id="Rounded_Rectangle_5" data-name="Rounded Rectangle 5"><rect class="cls-5" x="13.36" y="4.87" width="83.63" height="38.67" rx="0.79" ry="0.79"/></g><g id="Rectangle_2" data-name="Rectangle 2"><rect class="cls-6" x="13.36" y="6.29" width="83.63" height="37.41"/></g><g id="Rectangle_2_copy" data-name="Rectangle 2 copy"><rect class="cls-7" x="13.36" y="6.29" width="20.91" height="37.41"/></g><g id="Rectangle_2_copy_3" data-name="Rectangle 2 copy 3"><rect class="cls-8" x="34.27" y="6.29" width="62.72" height="1.26"/></g><g id="Rectangle_2_copy_2" data-name="Rectangle 2 copy 2"><rect class="cls-6" x="34.27" y="6.29" width="11.95" height="1.26"/></g></g><g id="text"><g id="keyword"><rect class="cls-9" x="36.47" y="9.43" width="2.2" height="0.47"/></g><g id="object"><rect class="cls-10" x="39.62" y="12.74" width="5.03" height="0.47"/></g><g id="regular"><rect class="cls-11" x="39.62" y="9.43" width="4.4" height="0.47"/></g><g id="regular_copy" data-name="regular copy"><rect class="cls-11" x="44.96" y="9.43" width="5.03" height="0.47"/></g><g id="regular_copy_17" data-name="regular copy 17"><rect class="cls-11" x="44.65" y="29.87" width="5.03" height="0.47"/></g><g id="regular_copy_2" data-name="regular copy 2"><rect class="cls-11" x="45.59" y="12.74" width="5.03" height="0.47"/></g><g id="regular_copy_5" data-name="regular copy 5"><rect class="cls-11" x="51.56" y="12.74" width="5.03" height="0.47"/></g><g id="regular_copy_12" data-name="regular copy 12"><rect class="cls-11" x="44.65" y="24.37" width="5.03" height="0.47"/></g><g id="regular_copy_13" data-name="regular copy 13"><rect class="cls-11" x="50.78" y="24.37" width="5.03" height="0.47"/></g><g id="regular_copy_3" data-name="regular copy 3"><rect class="cls-11" x="39.62" y="15.56" width="7.86" height="0.47"/></g><g id="regular_copy_18" data-name="regular copy 18"><rect class="cls-11" x="50.78" y="29.87" width="7.86" height="0.47"/></g><g id="regular_copy_4" data-name="regular copy 4"><rect class="cls-11" x="48.58" y="15.56" width="12.1" height="0.47"/></g><g id="regular_copy_6" data-name="regular copy 6"><rect class="cls-11" x="62.1" y="15.56" width="12.1" height="0.47"/></g><g id="regular_copy_7" data-name="regular copy 7"><rect class="cls-11" x="39.62" y="18.87" width="12.1" height="0.47"/></g><g id="regular_copy_8" data-name="regular copy 8"><rect class="cls-11" x="52.98" y="18.87" width="12.1" height="0.47"/></g><g id="regular_copy_9" data-name="regular copy 9"><rect class="cls-11" x="66.34" y="18.87" width="12.1" height="0.47"/></g><g id="regular_copy_10" data-name="regular copy 10"><rect class="cls-11" x="44.65" y="21.54" width="12.1" height="0.47"/></g><g id="regular_copy_11" data-name="regular copy 11"><rect class="cls-11" x="58.01" y="21.54" width="12.1" height="0.47"/></g><g id="regular_copy_14" data-name="regular copy 14"><rect class="cls-11" x="56.91" y="24.37" width="12.1" height="0.47"/></g><g id="object_copy_2" data-name="object copy 2"><rect class="cls-10" x="39.93" y="27.2" width="5.03" height="0.47"/></g><g id="regular_copy_15" data-name="regular copy 15"><rect class="cls-11" x="45.9" y="27.2" width="12.1" height="0.47"/></g><g id="regular_copy_16" data-name="regular copy 16"><rect class="cls-11" x="59.11" y="27.2" width="12.1" height="0.47"/></g><g id="regular_copy_19" data-name="regular copy 19"><rect class="cls-11" x="14.46" y="7.55" width="12.1" height="0.47"/></g><g id="regular_copy_20" data-name="regular copy 20"><rect class="cls-11" x="14.46" y="8.96" width="8.02" height="0.47"/></g><g id="regular_copy_21" data-name="regular copy 21"><rect class="cls-11" x="14.46" y="10.38" width="6.76" height="0.47"/></g><g id="regular_copy_22" data-name="regular copy 22"><rect class="cls-11" x="14.46" y="15.56" width="12.1" height="0.47"/></g><g id="regular_copy_22-2" data-name="regular copy 22"><rect class="cls-11" x="14.46" y="16.98" width="8.02" height="0.47"/></g><g id="regular_copy_22-3" data-name="regular copy 22"><rect class="cls-11" x="14.46" y="18.39" width="6.76" height="0.47"/></g><g id="regular_copy_23" data-name="regular copy 23"><rect class="cls-11" x="14.46" y="23.43" width="12.1" height="0.47"/></g><g id="regular_copy_23-2" data-name="regular copy 23"><rect class="cls-11" x="14.46" y="24.84" width="8.02" height="0.47"/></g><g id="regular_copy_23-3" data-name="regular copy 23"><rect class="cls-11" x="14.46" y="26.25" width="6.76" height="0.47"/></g></g><g id="toolbar"><g id="Ellipse_1" data-name="Ellipse 1"><path class="cls-12" d="M23.19,34.74a.55.55,0,0,0-.55.55.54.54,0,0,0,.55.55.55.55,0,0,0,.55-.55A.55.55,0,0,0,23.19,34.74Z" transform="translate(-8.17 -29.71)"/></g><g id="Ellipse_1_copy" data-name="Ellipse 1 copy"><path class="cls-13" d="M25.07,34.74a.55.55,0,0,0-.55.55.55.55,0,0,0,.55.55.54.54,0,0,0,.55-.55A.55.55,0,0,0,25.07,34.74Z" transform="translate(-8.17 -29.71)"/></g><g id="Ellipse_1_copy_2" data-name="Ellipse 1 copy 2"><path class="cls-14" d="M26.8,34.74a.55.55,0,0,0-.55.55.55.55,0,0,0,.55.55.54.54,0,0,0,.55-.55A.55.55,0,0,0,26.8,34.74Z" transform="translate(-8.17 -29.71)"/></g></g></svg>